<svg width="55" height="10" viewBox="0 0 55 10" fill="none" xmlns="http://www.w3.org/2000/svg">
<path d="M9.1 9.3V10H4.9V9.3H6.3V7.9H1.4V5.8H2.1V7.2H5.6V5.8H4.9V3.7H4.2V1.6H3.5V0.199999H4.9V1.6H5.6V3.7H6.3V5.8H7V7.9H7.7V9.3H9.1ZM3.5 3.7H2.8V1.6H3.5V3.7ZM2.8 5.8H2.1V3.7H2.8V5.8ZM0.7 7.9H1.4V9.3H2.8V10H0V9.3H0.7V7.9ZM14.0055 3V3.7H11.2055V5.1H11.9055V5.8H13.3055V6.5H14.7055V7.2H15.4055V9.3H14.7055V10H11.2055V9.3H14.0055V7.9H13.3055V7.2H11.9055V6.5H10.5055V5.8H9.80547V3.7H10.5055V3H14.0055ZM14.7055 3H15.4055V5.1H14.7055V4.4H14.0055V3.7H14.7055V3ZM10.5055 8.6H11.2055V9.3H10.5055V10H9.80547V7.9H10.5055V8.6ZM18.9055 9.3H20.3055V10H18.2055V9.3H17.5055V3.7H16.8055V3H17.5055V2.3H18.2055V1.6H18.9055V3H21.0055V3.7H18.9055V9.3ZM21.0055 8.6V9.3H20.3055V8.6H21.0055ZM24.5109 4.4H25.2109V5.1H24.5109V9.3H25.2109V10H22.4109V9.3H23.1109V4.4H22.4109V3.7H23.1109V3H24.5109V4.4ZM28.0109 3.7H28.7109V5.1H27.3109V3.7H25.9109V3H28.0109V3.7ZM25.2109 4.4V3.7H25.9109V4.4H25.2109ZM34.3109 3V3.7H31.5109V5.1H30.1109V3.7H30.8109V3H34.3109ZM35.7109 9.3H36.4109V10H34.3109V8.6H33.6109V7.9H34.3109V6.5H30.8109V5.8H34.3109V3.7H35.0109V4.4H35.7109V9.3ZM31.5109 9.3H32.9109V10H30.1109V9.3H29.4109V7.2H30.1109V6.5H30.8109V8.6H31.5109V9.3ZM32.9109 9.3V8.6H33.6109V9.3H32.9109ZM46.2055 9.3V10H43.4055V9.3H42.7055V8.6H42.0055V0.899999H41.3055V0.199999H44.1055V0.899999H43.4055V8.6H44.1055V9.3H46.2055ZM49.7055 9.3H50.4055V10H48.3055V7.9H47.6055V6.5H48.3055V0.899999H47.6055V0.199999H50.4055V0.899999H49.7055V9.3ZM46.9055 8.6V7.9H47.6055V8.6H46.9055ZM46.2055 9.3V8.6H46.9055V9.3H46.2055ZM53.9055 9.3H54.6055V10H51.8055V9.3H52.5055V0.899999H51.8055V0.199999H54.6055V0.899999H53.9055V9.3Z" fill="black"/>
</svg>
